<?xml version="1.0" encoding="UTF-8"?>
<svg width="512" height="512" viewBox="0 0 512 512" fill="none" xmlns="http://www.w3.org/2000/svg">
  <!-- Background Circle -->
  <circle cx="256" cy="256" r="240" fill="#F7931A"/>
  
  <!-- Stylized 'C' -->
  <path d="M256 96C179.307 96 128 147.307 128 224C128 300.693 179.307 352 256 352C332.693 352 384 300.693 384 224C384 147.307 332.693 96 256 96ZM256 320C197.019 320 160 282.981 160 224C160 165.019 197.019 128 256 128C314.981 128 352 165.019 352 224C352 282.981 314.981 320 256 320Z" fill="white"/>
  
  <!-- Bitcoin Symbol Stylization -->
  <path d="M256 160C220.735 160 192 188.735 192 224C192 259.265 220.735 288 256 288C291.265 288 320 259.265 320 224C320 188.735 291.265 160 256 160Z" fill="#F7931A"/>
  <path d="M256 256C233.909 256 216 238.091 216 216C216 193.909 233.909 176 256 176C278.091 176 296 193.909 296 216C296 238.091 278.091 256 256 256Z" fill="white"/>
</svg> 